<?xml version="1.0" encoding="utf-8"?>
<!-- Generator: Adobe Illustrator 28.2.0, SVG Export Plug-In . SVG Version: 6.00 Build 0)  -->
 <svg xmlns="http://www.w3.org/2000/svg"
     viewBox="0 0 778 318.2"
     preserveAspectRatio="xMidYMid meet">

 <g transform="scale(1)">


<style type="text/css">
	.st0{fill-rule:evenodd;clip-rule:evenodd;fill:#F57C00;}
</style>
<path class="st0" d="M693.9,318.2H528.5c-46.4,0-84-37.7-84-84.2V84.2c0-46.5,37.6-84.2,84-84.2h165.5c46.4,0,84,37.7,84,84.2V234
	C778,280.5,740.3,318.2,693.9,318.2z M718,77.8h-1.3l-54.3,82.9l-54.4-82.9h-1.3v69.8c-4.7-4-10.1-7.2-16.4-9.4c0-0.3,0-0.5,0-0.8
	c0-35.3-22.5-57.2-58.7-57.1h-32.4v114h32.4c0.7,0,1.3-0.1,2-0.1v54.1H566c36.1,0,58.7-21.9,58.7-56.8c0-1.9-0.1-3.9-0.2-5.7V131
	l37.8,61.4h0.1l37.8-61.3v63.2H718L718,77.8L718,77.8z M566.2,230.5h-14.8v-38.8c18.2-5,30.9-17.2,36.1-34.8
	c11.9,6.2,18.9,18.1,19.1,34v0.9C606.4,215.6,590.9,230.5,566.2,230.5z M533.6,134.4v42c-0.6,0-1.2,0.1-1.9,0.1H517V98.1h14.5
	c24,0,39.4,14,40.5,36.5c-2-0.1-4-0.2-6-0.2H533.6L533.6,134.4z M569.8,152.3c-3.2,9.3-9.5,16.3-18.4,20.3v-20.4h14.5
	C567.2,152.1,568.5,152.2,569.8,152.3L569.8,152.3z"/>
<path class="st0" d="M333.9,199.4c-22.8,0-41.5-18.7-41.5-41.4s18.6-41.8,41.5-41.8s41.6,18.8,41.6,41.8S356.7,199.4,333.9,199.4z
	 M333.9,128.9c-15.9,0-28.8,13-28.8,28.9s12.9,28.8,28.8,28.8s28.9-12.9,28.9-28.8S349.7,128.9,333.9,128.9z M257.9,170.2h-14.2
	v27.9h-12.6v-80.5h26.9c15.5,0,28.3,11.9,28.3,26.6S273.5,170.2,257.9,170.2L257.9,170.2z M257.9,130.1h-14.2v27.5l14.2,0.1
	c8.6,0.1,15.6-6.1,15.6-13.6S266.6,130.1,257.9,130.1L257.9,130.1z M186,199.6c-17.1,0-30.4-13.5-30.4-32v-50h12.7v49.9
	c0,11.1,7.8,19.3,17.6,19.3s17.7-8.1,17.7-19.3v-49.9h12.7v50C216.4,186,203.1,199.6,186,199.6L186,199.6z M135.9,198.1l-21.6-31.2
	h-9.9v31.2H91.8l-0.1-80.5h25c14.9,0,27.2,11.5,27.2,25.9c0,10.4-6.7,19.4-15.9,22.4l23.4,32.2H135.9L135.9,198.1z M130.9,143.1
	c0-7.5-6.4-13-13.9-13h-12.7v26.3H117C124.6,156.5,130.9,150.3,130.9,143.1L130.9,143.1z M41.9,199.4C18.5,199.4,0,180.7,0,157.9
	s18.6-41.7,41.5-41.7c10.1,0.1,21.7,4.9,29.3,12.3l-7,10.5c-6.3-6.2-14.8-10.1-22.4-10.1c-14.6,0-28.5,12.3-28.5,29
	c0,15.8,12.5,28.8,29.6,28.8c13.8,0,24.2-8.4,24.2-20.7v-0.2H41.8v-11.6h38c0.2,1.9,0.3,4.1,0.3,6.3
	C80.1,184.3,62.8,199.4,41.9,199.4z"/>

 </g>
</svg>
